# Blender 4.2.2 LTS
# www.blender.org
mtllib Barrel.mtl
o Barrel
v -0.007271 0.030998 -0.719971
v -0.013712 0.029629 -0.719935
v -0.000685 0.030998 -0.720007
v 0.005756 0.029629 -0.720043
v -0.019728 0.026950 -0.719902
v 0.011772 0.026950 -0.720076
v -0.025055 0.023079 -0.719873
v 0.017100 0.023079 -0.720105
v -0.029461 0.018185 -0.719848
v 0.021506 0.018185 -0.720130
v -0.032754 0.012482 -0.719830
v 0.024799 0.012482 -0.720148
v -0.034789 0.006219 -0.719819
v 0.026834 0.006219 -0.720159
v -0.035477 -0.000330 -0.719815
v 0.027522 -0.000330 -0.720163
v -0.034789 -0.006879 -0.719819
v 0.026834 -0.006879 -0.720159
v -0.032754 -0.013142 -0.719830
v 0.024799 -0.013142 -0.720148
v -0.029461 -0.018845 -0.719848
v 0.021506 -0.018845 -0.720130
v -0.025055 -0.023739 -0.719873
v 0.017100 -0.023739 -0.720105
v -0.019728 -0.027610 -0.719902
v 0.011772 -0.027610 -0.720076
v -0.013712 -0.030288 -0.719935
v 0.005756 -0.030288 -0.720043
v -0.007271 -0.031657 -0.719971
v -0.000685 -0.031657 -0.720007
v -0.030812 -0.006879 0.000170
v -0.028777 -0.013142 0.000159
v -0.025484 -0.018845 0.000141
v -0.021078 -0.023739 0.000116
v -0.015750 -0.027610 0.000087
v -0.009734 -0.030288 0.000054
v -0.003293 -0.031657 0.000018
v 0.003293 -0.031657 -0.000018
v 0.009734 -0.030288 -0.000054
v 0.015750 -0.027610 -0.000087
v 0.021078 -0.023739 -0.000116
v 0.025484 -0.018845 -0.000141
v 0.028777 -0.013142 -0.000159
v 0.030812 -0.006879 -0.000170
v 0.031500 -0.000330 -0.000174
v 0.030812 0.006219 -0.000170
v 0.028777 0.012482 -0.000159
v 0.025484 0.018185 -0.000141
v 0.021078 0.023079 -0.000116
v 0.015750 0.026950 -0.000087
v 0.009734 0.029629 -0.000054
v 0.003293 0.030998 -0.000018
v -0.003293 0.030998 0.000018
v -0.009734 0.029629 0.000054
v -0.015750 0.026950 0.000087
v -0.021078 0.023079 0.000116
v -0.025484 0.018185 0.000141
v -0.028777 0.012482 0.000159
v -0.030812 0.006219 0.000170
v -0.031500 -0.000330 0.000174
vn -0.0696 0.9976 0.0004
vn -0.1393 0.9903 0.0008
vn -0.2755 0.9613 0.0015
vn -0.3422 0.9396 0.0019
vn -0.4694 0.8830 0.0026
vn -0.5300 0.8480 0.0029
vn -0.6427 0.7661 0.0036
vn -0.6948 0.7192 0.0038
vn -0.7880 0.6157 0.0044
vn -0.8291 0.5591 0.0046
vn -0.8987 0.4385 0.0050
vn -0.9272 0.3745 0.0051
vn -0.9703 0.2420 0.0054
vn -0.9848 0.1735 0.0054
vn -0.9994 0.0350 0.0055
vn -0.9994 -0.0350 0.0055
vn -0.9848 -0.1735 0.0054
vn -0.9703 -0.2420 0.0054
vn -0.9272 -0.3745 0.0051
vn -0.8987 -0.4385 0.0050
vn -0.8291 -0.5591 0.0046
vn -0.7880 -0.6157 0.0044
vn -0.6948 -0.7192 0.0038
vn -0.6427 -0.7661 0.0036
vn -0.5300 -0.8480 0.0029
vn -0.4693 -0.8830 0.0026
vn -0.3420 -0.9397 0.0019
vn -0.2755 -0.9613 0.0015
vn -0.1393 -0.9903 0.0008
vn -0.0696 -0.9976 0.0004
vn 0.0696 -0.9976 -0.0004
vn 0.1393 -0.9903 -0.0008
vn 0.2755 -0.9613 -0.0015
vn 0.3420 -0.9397 -0.0019
vn 0.4693 -0.8830 -0.0026
vn 0.5300 -0.8480 -0.0029
vn 0.6427 -0.7661 -0.0036
vn 0.6948 -0.7192 -0.0038
vn 0.7880 -0.6157 -0.0044
vn 0.8291 -0.5591 -0.0046
vn 0.8987 -0.4385 -0.0050
vn 0.9272 -0.3745 -0.0051
vn 0.9703 -0.2420 -0.0054
vn 0.9848 -0.1735 -0.0054
vn 0.9994 -0.0350 -0.0055
vn 0.9994 0.0350 -0.0055
vn 0.9848 0.1735 -0.0054
vn 0.9703 0.2420 -0.0054
vn 0.9272 0.3745 -0.0051
vn 0.8987 0.4385 -0.0050
vn 0.1393 0.9903 -0.0008
vn 0.0696 0.9976 -0.0004
vn 0.3422 0.9396 -0.0019
vn 0.2755 0.9613 -0.0015
vn 0.5300 0.8480 -0.0029
vn 0.4694 0.8830 -0.0026
vn 0.6948 0.7192 -0.0038
vn 0.6427 0.7661 -0.0036
vn 0.8291 0.5591 -0.0046
vn 0.7880 0.6157 -0.0044
vn -0.0000 1.0000 -0.0000
vn -0.0055 -0.0000 -1.0000
vt -0.003293 -0.000000
vt -0.003293 0.720000
vt -0.009734 -0.000000
vt -0.009734 0.720000
vt -0.015750 -0.000000
vt -0.015750 0.720000
vt -0.021078 -0.000000
vt -0.021078 0.720000
vt -0.025484 -0.000000
vt -0.025484 0.720000
vt -0.028777 -0.000000
vt -0.028777 0.720000
vt -0.030812 -0.000000
vt -0.030812 0.720000
vt -0.031500 -0.000000
vt -0.031500 0.720000
vt -0.030812 -0.000000
vt -0.028777 -0.000000
vt -0.025484 -0.000000
vt -0.025484 0.720000
vt -0.021078 -0.000000
vt -0.021078 0.720000
vt -0.015750 -0.000000
vt -0.015750 0.720000
vt -0.009734 -0.000000
vt -0.009734 0.720000
vt -0.003293 -0.000000
vt -0.003293 0.720000
vt 0.003293 -0.000000
vt 0.003293 0.720000
vt 0.009734 -0.000000
vt 0.009734 0.720000
vt 0.015750 -0.000000
vt 0.015750 0.720000
vt 0.021078 -0.000000
vt 0.021078 0.720000
vt 0.025484 -0.000000
vt 0.025484 0.720000
vt 0.028777 -0.000000
vt 0.028777 0.720000
vt 0.030812 -0.000000
vt 0.030812 0.720000
vt 0.031500 -0.000000
vt 0.031500 0.720000
vt 0.030812 -0.000000
vt 0.028777 -0.000000
vt 0.003293 -0.000000
vt 0.003293 0.720000
vt 0.009734 -0.000000
vt 0.009734 0.720000
vt 0.015750 -0.000000
vt 0.015750 0.720000
vt 0.021078 -0.000000
vt 0.021078 0.720000
vt 0.025484 -0.000000
vt 0.025484 0.720000
vt 0.003293 0.071910
vt -0.003293 0.071910
vt 0.009734 0.070541
vt -0.009734 0.070541
vt 0.015750 0.067862
vt -0.015750 0.067862
vt 0.021078 0.063991
vt -0.021078 0.063991
vt 0.025484 0.059097
vt -0.025484 0.059097
vt 0.028777 0.053394
vt -0.028777 0.053394
vt 0.030812 0.047131
vt -0.030812 0.047131
vt 0.031500 0.040582
vt -0.031500 0.040582
vt 0.030812 0.034033
vt -0.030812 0.034033
vt 0.028777 0.027770
vt -0.028777 0.027770
vt 0.025484 0.022067
vt -0.025484 0.022067
vt 0.021078 0.017173
vt -0.021078 0.017173
vt 0.015750 0.013302
vt -0.015750 0.013302
vt 0.009734 0.010624
vt -0.009734 0.010624
vt 0.003293 0.009255
vt -0.003293 0.009255
s 1
usemtl GunMetal
f 53/1/1 1/2/2 54/3/3
f 54/3/3 1/2/2 2/4/4
f 54/3/3 2/4/4 55/5/5
f 55/5/5 2/4/4 5/6/6
f 55/5/5 5/6/6 56/7/7
f 56/7/7 5/6/6 7/8/8
f 56/7/7 7/8/8 57/9/9
f 57/9/9 7/8/8 9/10/10
f 57/9/9 9/10/10 58/11/11
f 58/11/11 9/10/10 11/12/12
f 58/11/11 11/12/12 59/13/13
f 59/13/13 11/12/12 13/14/14
f 59/13/13 13/14/14 60/15/15
f 60/15/15 13/14/14 15/16/16
f 60/15/15 15/16/16 31/17/17
f 31/17/17 15/16/16 17/14/18
f 31/17/17 17/14/18 32/18/19
f 32/18/19 17/14/18 19/12/20
f 32/18/19 19/12/20 33/19/21
f 33/19/21 19/12/20 21/20/22
f 33/19/21 21/20/22 34/21/23
f 34/21/23 21/20/22 23/22/24
f 34/21/23 23/22/24 35/23/25
f 35/23/25 23/22/24 25/24/26
f 35/23/25 25/24/26 36/25/27
f 36/25/27 25/24/26 27/26/28
f 36/25/27 27/26/28 37/27/29
f 37/27/29 27/26/28 29/28/30
f 37/27/29 29/28/30 38/29/31
f 38/29/31 29/28/30 30/30/32
f 38/29/31 30/30/32 39/31/33
f 39/31/33 30/30/32 28/32/34
f 39/31/33 28/32/34 40/33/35
f 40/33/35 28/32/34 26/34/36
f 40/33/35 26/34/36 41/35/37
f 41/35/37 26/34/36 24/36/38
f 41/35/37 24/36/38 42/37/39
f 42/37/39 24/36/38 22/38/40
f 42/37/39 22/38/40 43/39/41
f 43/39/41 22/38/40 20/40/42
f 43/39/41 20/40/42 44/41/43
f 44/41/43 20/40/42 18/42/44
f 44/41/43 18/42/44 45/43/45
f 45/43/45 18/42/44 16/44/46
f 45/43/45 16/44/46 46/45/47
f 46/45/47 16/44/46 14/42/48
f 46/45/47 14/42/48 47/46/49
f 47/46/49 14/42/48 12/40/50
f 52/47/51 3/48/52 53/1/1
f 53/1/1 3/48/52 1/2/2
f 51/49/53 4/50/54 52/47/51
f 52/47/51 4/50/54 3/48/52
f 50/51/55 6/52/56 51/49/53
f 51/49/53 6/52/56 4/50/54
f 49/53/57 8/54/58 50/51/55
f 50/51/55 8/54/58 6/52/56
f 48/55/59 10/56/60 49/53/57
f 49/53/57 10/56/60 8/54/58
f 47/46/49 12/40/50 48/55/59
f 48/55/59 12/40/50 10/56/60
f 1/57/61 3/58/62 2/59/62
f 2/59/62 3/58/62 4/60/62
f 2/59/62 4/60/62 5/61/62
f 5/61/62 4/60/62 6/62/62
f 5/61/62 6/62/62 7/63/62
f 7/63/62 6/62/62 8/64/62
f 7/63/62 8/64/62 9/65/62
f 9/65/62 8/64/62 10/66/62
f 9/65/62 10/66/62 11/67/62
f 11/67/62 10/66/62 12/68/62
f 11/67/62 12/68/62 13/69/62
f 13/69/62 12/68/62 14/70/62
f 13/69/62 14/70/62 15/71/62
f 15/71/62 14/70/62 16/72/62
f 15/71/62 16/72/62 17/73/62
f 17/73/62 16/72/62 18/74/62
f 17/73/62 18/74/62 19/75/62
f 19/75/62 18/74/62 20/76/62
f 19/75/62 20/76/62 21/77/62
f 21/77/62 20/76/62 22/78/62
f 21/77/62 22/78/62 23/79/62
f 23/79/62 22/78/62 24/80/62
f 23/79/62 24/80/62 25/81/62
f 25/81/62 24/80/62 26/82/62
f 25/81/62 26/82/62 27/83/62
f 27/83/62 26/82/62 28/84/62
f 27/83/62 28/84/62 29/85/62
f 29/85/62 28/84/62 30/86/61
