# Blender 4.2.2 LTS
# www.blender.org
mtllib Body.mtl
o Body
v 0.454531 -0.108412 0.818972
v -0.445455 -0.108412 0.823945
v 0.231637 -0.040912 0.437387
v -0.226790 -0.040912 0.439920
v 0.446650 -0.331279 -0.607527
v 0.446704 -0.332877 -0.597845
v 0.446548 -0.324980 -0.626083
v 0.446598 -0.328636 -0.616977
v 0.445869 -0.267642 -0.749039
v 0.445814 -0.262214 -0.758992
v 0.445763 -0.255577 -0.768182
v 0.445717 -0.247837 -0.776466
v 0.445677 -0.239117 -0.783711
v 0.445643 -0.229556 -0.789803
v 0.445617 -0.219304 -0.794644
v 0.445597 -0.208525 -0.798158
v 0.445585 -0.197390 -0.800288
v 0.445581 -0.108412 -0.801003
v 0.445581 -0.186076 -0.801003
v 0.446758 -0.333412 -0.588047
v 0.453355 -0.333412 0.606018
v 0.453409 -0.332877 0.615815
v 0.453463 -0.331279 0.625497
v 0.453515 -0.328636 0.634947
v 0.453565 -0.324980 0.644053
v 0.454244 -0.267643 0.767009
v 0.454299 -0.262214 0.776962
v 0.454350 -0.255577 0.786153
v 0.454396 -0.247837 0.794437
v 0.454436 -0.239117 0.801682
v 0.454470 -0.229556 0.807773
v 0.454496 -0.219304 0.812614
v 0.454516 -0.208525 0.816128
v 0.454528 -0.197390 0.818258
v 0.454531 -0.186076 0.818972
v -0.445455 -0.186076 0.823945
v -0.446524 -0.331279 0.630469
v -0.446577 -0.332877 0.620788
v -0.446421 -0.324980 0.649025
v -0.446471 -0.328636 0.639919
v -0.445687 -0.262214 0.781934
v -0.445742 -0.267643 0.771981
v -0.445590 -0.247837 0.799409
v -0.445636 -0.255577 0.791125
v -0.445517 -0.229556 0.812746
v -0.445550 -0.239117 0.806654
v -0.445470 -0.208525 0.821101
v -0.445490 -0.219304 0.817587
v -0.445459 -0.197390 0.823232
v -0.446631 -0.333412 0.610990
v -0.454405 -0.108412 -0.796031
v -0.453228 -0.333412 -0.583075
v -0.453282 -0.332877 -0.592873
v -0.453336 -0.331279 -0.602555
v -0.453388 -0.328636 -0.612005
v -0.453438 -0.324980 -0.621110
v -0.454118 -0.267642 -0.744066
v -0.454173 -0.262214 -0.754019
v -0.454223 -0.255577 -0.763210
v -0.454269 -0.247837 -0.771494
v -0.454309 -0.239117 -0.778739
v -0.454343 -0.229556 -0.784831
v -0.454370 -0.219304 -0.789672
v -0.454389 -0.208525 -0.793186
v -0.454401 -0.197390 -0.795316
v -0.454405 -0.186076 -0.796031
v -0.229363 -0.040912 -0.025733
v 0.229064 -0.040912 -0.028266
v -0.227065 -0.040912 0.439921
v -0.229363 -0.040912 -0.025733
v 0.229062 -0.040912 -0.028610
vn -1.0000 -0.0000 0.0055
vn 1.0000 -0.0000 -0.0055
vn 1.0000 0.0001 -0.0055
vn 1.0000 -0.0001 -0.0055
vn 0.0010 0.9848 0.1736
vn 0.0055 -0.0000 1.0000
vn -0.0055 -0.0000 -1.0000
vn -0.2924 0.9563 0.0016
vn -0.0005 0.9962 -0.0872
vn 0.2924 0.9563 -0.0016
vn -0.0000 1.0000 -0.0000
vt 0.153583 0.909867
vt 0.033794 0.826990
vt 0.033794 0.783304
vt 0.945044 0.783304
vt 0.034195 0.833354
vt 0.037371 0.845681
vt 0.035394 0.839618
vt 0.043520 0.856826
vt 0.040094 0.851448
vt 0.052256 0.866085
vt 0.047596 0.861731
vt 0.063024 0.872872
vt 0.057425 0.869818
vt 0.137310 0.907180
vt 0.132188 0.905124
vt 0.148072 0.909566
vt 0.142626 0.908667
vt 0.825255 0.909867
vt 0.830766 0.909566
vt 0.836212 0.908667
vt 0.841528 0.907180
vt 0.846650 0.905124
vt 0.915814 0.872872
vt 0.921413 0.869818
vt 0.926582 0.866084
vt 0.931242 0.861731
vt 0.935318 0.856826
vt 0.938744 0.851448
vt 0.941467 0.845681
vt 0.943444 0.839618
vt 0.944642 0.833354
vt 0.945044 0.826990
vt 0.955082 0.783304
vt 0.954680 0.833354
vt 0.953482 0.839618
vt 0.955082 0.826990
vt 0.951505 0.845681
vt 0.948782 0.851448
vt 0.945355 0.856826
vt 0.941280 0.861731
vt 0.936620 0.866084
vt 0.931450 0.869818
vt 0.925852 0.872872
vt 0.856688 0.905124
vt 0.851566 0.907180
vt 0.846250 0.908667
vt 0.840804 0.909566
vt 0.163621 0.909867
vt 0.835293 0.909867
vt 0.043832 0.826990
vt 0.043832 0.783304
vt 0.147348 0.907180
vt 0.142226 0.905124
vt 0.073062 0.872872
vt 0.158110 0.909566
vt 0.152663 0.908667
vt 0.067463 0.869818
vt 0.062293 0.866085
vt 0.057634 0.861731
vt 0.053558 0.856826
vt 0.050132 0.851448
vt 0.047409 0.845681
vt 0.045432 0.839618
vt 0.044234 0.833354
vt 0.931872 0.709482
vt 0.716256 0.332729
vt 0.931872 0.210263
vt 0.716256 0.587017
vt 0.557154 0.709482
vt 0.514075 0.210263
vt 0.557154 0.210263
vt 0.514075 0.709482
vt 0.461657 0.338285
vt 0.932293 0.210223
vt 0.719952 0.338285
vt 0.033699 0.210223
vt 0.461714 0.587017
vt 0.032121 0.210263
vt 0.461714 0.332729
vt 0.032121 0.709482
vt 0.033699 0.709522
vt 0.719952 0.581461
vt 0.932293 0.709522
vt 0.461657 0.581461
vt 0.291291 0.268187
vt 0.750000 0.734191
vt 0.291566 0.733847
vt 0.750000 0.268187
s 1
usemtl Glitz_Gray
f 50/1/1 36/2/1 2/3/1
f 50/1/1 2/3/1 51/4/1
f 50/1/1 49/5/1 36/2/1
f 50/1/1 48/6/1 47/7/1
f 50/1/1 47/7/1 49/5/1
f 50/1/1 46/8/1 45/9/1
f 50/1/1 45/9/1 48/6/1
f 50/1/1 44/10/1 43/11/1
f 50/1/1 43/11/1 46/8/1
f 50/1/1 42/12/1 41/13/1
f 50/1/1 41/13/1 44/10/1
f 50/1/1 40/14/1 39/15/1
f 50/1/1 39/15/1 42/12/1
f 50/1/1 38/16/1 37/17/1
f 50/1/1 37/17/1 40/14/1
f 50/1/1 51/4/1 52/18/1
f 51/4/1 53/19/1 52/18/1
f 51/4/1 54/20/1 53/19/1
f 51/4/1 55/21/1 54/20/1
f 51/4/1 56/22/1 55/21/1
f 51/4/1 57/23/1 56/22/1
f 51/4/1 58/24/1 57/23/1
f 51/4/1 59/25/1 58/24/1
f 51/4/1 60/26/1 59/25/1
f 51/4/1 61/27/1 60/26/1
f 51/4/1 62/28/1 61/27/1
f 51/4/1 63/29/1 62/28/1
f 51/4/1 64/30/1 63/29/1
f 51/4/1 65/31/1 64/30/1
f 51/4/1 66/32/1 65/31/1
f 1/33/2 34/34/2 33/35/2
f 1/33/2 35/36/2 34/34/2
f 1/33/2 33/35/2 32/37/2
f 1/33/2 32/37/2 31/38/2
f 1/33/2 31/38/2 30/39/2
f 1/33/2 30/39/2 29/40/2
f 1/33/2 29/40/2 28/41/2
f 1/33/2 28/41/2 27/42/2
f 1/33/2 26/43/2 25/44/2
f 1/33/2 27/42/2 26/43/2
f 1/33/2 24/45/2 23/46/2
f 1/33/2 25/44/2 24/45/2
f 1/33/2 23/46/2 22/47/2
f 20/48/2 1/33/2 21/49/2
f 1/33/2 22/47/2 21/49/2
f 20/48/2 19/50/2 18/51/2
f 20/48/2 18/51/2 1/33/2
f 20/48/2 8/52/2 7/53/2
f 20/48/2 7/53/2 9/54/2
f 20/48/2 6/55/3 5/56/4
f 20/48/2 5/56/4 8/52/2
f 20/48/2 9/54/2 10/57/2
f 20/48/2 10/57/2 11/58/2
f 20/48/2 11/58/2 12/59/2
f 20/48/2 12/59/2 13/60/2
f 20/48/2 13/60/2 14/61/2
f 20/48/2 14/61/2 15/62/2
f 20/48/2 15/62/2 16/63/2
f 20/48/2 16/63/2 17/64/2
f 20/48/2 17/64/2 19/50/2
f 1/65/5 4/66/5 2/67/5
f 4/66/5 1/65/5 3/68/5
f 35/69/6 2/70/6 36/71/6
f 2/70/6 35/69/6 1/72/6
f 66/69/7 18/70/7 19/71/7
f 18/70/7 66/69/7 51/72/7
f 67/73/8 2/74/8 4/75/8
f 2/74/8 67/73/8 51/76/8
f 68/77/9 51/78/9 67/79/9
f 51/78/9 68/77/9 18/80/9
f 18/81/10 3/82/10 1/83/10
f 3/82/10 18/81/10 68/84/10
f 69/85/11 71/86/11 70/87/11
f 71/86/11 69/85/11 3/88/11
