# Blender 4.2.2 LTS
# www.blender.org
mtllib Tracks.mtl
o Tracks
v -0.453438 -0.324980 -0.621110
v -0.453388 -0.328636 -0.612005
v 0.446548 -0.324980 -0.626083
v 0.446598 -0.328636 -0.616977
v -0.453336 -0.331279 -0.602555
v 0.446650 -0.331279 -0.607527
v -0.453282 -0.332877 -0.592873
v 0.446704 -0.332877 -0.597845
v -0.453228 -0.333412 -0.583075
v 0.446758 -0.333412 -0.588047
v -0.446631 -0.333412 0.610990
v -0.446577 -0.332877 0.620788
v 0.453355 -0.333412 0.606018
v 0.453409 -0.332877 0.615815
v -0.446524 -0.331279 0.630469
v 0.453463 -0.331279 0.625497
v -0.446471 -0.328636 0.639919
v 0.453515 -0.328636 0.634947
v -0.446421 -0.324980 0.649025
v 0.453565 -0.324980 0.644053
v 0.454531 -0.186076 0.818972
v 0.454528 -0.197390 0.818258
v -0.445455 -0.186076 0.823945
v -0.445459 -0.197390 0.823232
v 0.454516 -0.208525 0.816128
v -0.445470 -0.208525 0.821101
v 0.454496 -0.219304 0.812614
v -0.445490 -0.219304 0.817587
v 0.454470 -0.229556 0.807773
v -0.445517 -0.229556 0.812746
v 0.454436 -0.239117 0.801682
v -0.445550 -0.239117 0.806654
v 0.454396 -0.247837 0.794437
v -0.445590 -0.247837 0.799409
v 0.454350 -0.255577 0.786153
v -0.445636 -0.255577 0.791125
v 0.454299 -0.262214 0.776962
v -0.445687 -0.262214 0.781934
v 0.454244 -0.267643 0.767009
v -0.445742 -0.267643 0.771981
v -0.454118 -0.267642 -0.744066
v 0.445869 -0.267642 -0.749039
v -0.454405 -0.186076 -0.796031
v -0.454401 -0.197390 -0.795316
v 0.445581 -0.186076 -0.801003
v 0.445585 -0.197390 -0.800288
v -0.454389 -0.208525 -0.793186
v 0.445597 -0.208525 -0.798158
v -0.454370 -0.219304 -0.789672
v 0.445617 -0.219304 -0.794644
v -0.454343 -0.229556 -0.784831
v 0.445643 -0.229556 -0.789803
v -0.454309 -0.239117 -0.778739
v 0.445677 -0.239117 -0.783711
v -0.454269 -0.247837 -0.771494
v 0.445717 -0.247837 -0.776466
v -0.454223 -0.255577 -0.763210
v 0.445763 -0.255577 -0.768182
v -0.454173 -0.262214 -0.754019
v 0.445814 -0.262214 -0.758992
vn -0.0021 -0.9280 -0.3726
vn -0.0015 -0.9630 -0.2693
vn -0.0009 -0.9867 -0.1628
vn -0.0003 -0.9985 -0.0545
vn 0.0003 -0.9985 0.0545
vn 0.0009 -0.9867 0.1628
vn 0.0015 -0.9630 0.2693
vn 0.0021 -0.9280 0.3726
vn 0.0055 -0.0629 0.9980
vn 0.0054 -0.1879 0.9822
vn 0.0053 -0.3100 0.9507
vn 0.0050 -0.4270 0.9042
vn 0.0047 -0.5374 0.8433
vn 0.0042 -0.6391 0.7692
vn 0.0038 -0.7307 0.6827
vn 0.0032 -0.8107 0.5854
vn 0.0026 -0.8779 0.4789
vn 0.0023 -0.9063 0.4226
vn -0.0000 -1.0000 -0.0000
vn -0.0023 -0.9063 -0.4226
vn -0.0055 -0.0631 -0.9980
vn -0.0054 -0.1879 -0.9822
vn -0.0053 -0.3100 -0.9507
vn -0.0050 -0.4270 -0.9042
vn -0.0047 -0.5374 -0.8433
vn -0.0042 -0.6391 -0.7691
vn -0.0038 -0.7307 -0.6827
vn -0.0032 -0.8107 -0.5854
vn -0.0026 -0.8779 -0.4788
vt 0.696436 0.705392
vt 0.281593 0.705392
vt 0.281593 0.701194
vt 0.696436 0.701194
vt 0.281593 0.696838
vt 0.696436 0.696838
vt 0.281593 0.692376
vt 0.696436 0.692376
vt 0.281593 0.687859
vt 0.696436 0.687859
vt 0.696436 0.137462
vt 0.281593 0.137462
vt 0.281593 0.132945
vt 0.696436 0.132945
vt 0.281593 0.128483
vt 0.696436 0.128483
vt 0.281593 0.124127
vt 0.696436 0.124127
vt 0.281593 0.119929
vt 0.696436 0.119929
vt 0.696436 0.079079
vt 0.281593 0.079079
vt 0.281593 0.073864
vt 0.696436 0.073864
vt 0.281593 0.068731
vt 0.696436 0.068731
vt 0.281593 0.063763
vt 0.696436 0.063763
vt 0.281593 0.059037
vt 0.696436 0.059037
vt 0.281593 0.054630
vt 0.696436 0.054630
vt 0.281593 0.050611
vt 0.696436 0.050611
vt 0.696436 0.054429
vt 0.281593 0.054429
vt 0.696436 0.058666
vt 0.281593 0.058666
vt 0.696436 0.063253
vt 0.281593 0.063253
vt 0.696436 0.762067
vt 0.281593 0.762067
vt 0.696436 0.774710
vt 0.281593 0.774710
vt 0.281593 0.770892
vt 0.696436 0.770892
vt 0.281593 0.766655
vt 0.696436 0.766655
s 1
usemtl Grate
f 1/1/1 3/2/1 4/3/1 2/4/1
f 2/4/2 4/3/2 6/5/2 5/6/2
f 5/6/3 6/5/3 8/7/3 7/8/3
f 7/8/4 8/7/4 10/9/4 9/10/4
f 11/11/5 13/12/5 14/13/5 12/14/5
f 12/14/6 14/13/6 16/15/6 15/16/6
f 15/16/7 16/15/7 18/17/7 17/18/7
f 17/18/8 18/17/8 20/19/8 19/20/8
f 21/21/9 23/22/9 24/23/9 22/24/9
f 22/24/10 24/23/10 26/25/10 25/26/10
f 25/26/11 26/25/11 28/27/11 27/28/11
f 27/28/12 28/27/12 30/29/12 29/30/12
f 29/30/13 30/29/13 32/31/13 31/32/13
f 31/32/14 32/31/14 34/33/14 33/34/14
f 33/33/15 34/34/15 36/35/15 35/36/15
f 35/36/16 36/35/16 38/37/16 37/38/16
f 37/38/17 38/37/17 40/39/17 39/40/17
f 40/39/18 19/20/18 20/19/18 39/40/18
f 13/12/19 11/11/19 9/10/19 10/9/19
f 1/1/20 41/41/20 42/42/20 3/2/20
f 43/21/21 45/22/21 46/23/21 44/24/21
f 44/24/22 46/23/22 48/25/22 47/26/22
f 47/26/23 48/25/23 50/27/23 49/28/23
f 49/28/24 50/27/24 52/29/24 51/30/24
f 51/30/25 52/29/25 54/31/25 53/32/25
f 53/32/26 54/31/26 56/33/26 55/34/26
f 55/43/27 56/44/27 58/45/27 57/46/27
f 57/46/28 58/45/28 60/47/28 59/48/28
f 59/48/29 60/47/29 42/42/29 41/41/29
