<?xml version="1.0" encoding="UTF-8" standalone="no"?>
<svg
   width="32"
   height="32"
   enable-background="new 0 0 32 32"
   viewBox="0 0 32 32"
   id="audio"
   version="1.1"
   sodipodi:docname="audio.svg"
   inkscape:version="1.1.1 (3bf5ae0d25, 2021-09-20)"
   xmlns:inkscape="http://www.inkscape.org/namespaces/inkscape"
   xmlns:sodipodi="http://sodipodi.sourceforge.net/DTD/sodipodi-0.dtd"
   xmlns="http://www.w3.org/2000/svg"
   xmlns:svg="http://www.w3.org/2000/svg">
  <defs
     id="defs11" />
  <sodipodi:namedview
     id="namedview9"
     pagecolor="#ffffff"
     bordercolor="#666666"
     borderopacity="1.0"
     inkscape:pageshadow="2"
     inkscape:pageopacity="0.0"
     inkscape:pagecheckerboard="0"
     showgrid="false"
     inkscape:zoom="26"
     inkscape:cx="15.980769"
     inkscape:cy="16.019231"
     inkscape:window-width="1920"
     inkscape:window-height="1017"
     inkscape:window-x="-8"
     inkscape:window-y="-8"
     inkscape:window-maximized="1"
     inkscape:current-layer="audio" />
  <rect
     width="32"
     height="32"
     fill="none"
     id="rect2" />
  <path
     d="M24,19c-0.552,0-1-0.448-1-1s0.448-1,1-1c0.551,0,1-0.449,1-1s-0.449-1-1-1c-0.552,0-1-0.448-1-1s0.448-1,1-1    c1.654,0,3,1.346,3,3S25.654,19,24,19z"
     id="path4" />
  <path
     d="M24 23c-.552 0-1-.448-1-1s.448-1 1-1c2.757 0 5-2.243 5-5s-2.243-5-5-5c-.552 0-1-.448-1-1s.448-1 1-1c3.86 0 7 3.14 7 7S27.86 23 24 23zM5 10H3c-1.103 0-2 .897-2 2v8c0 1.103.897 2 2 2h2V10zM19.911 1.228c-.642-.338-1.414-.294-2.029.127L7 9.066v13.869l10.881 7.711.014.01c.333.228.719.343 1.105.343.312 0 .624-.075.91-.226C20.583 30.417 21 29.714 21 28.935V3.065C21 2.286 20.583 1.583 19.911 1.228z"
     id="path6" />
  <path
     style="fill:#ffffff;stroke:#000000;stroke-width:0.0675954;fill-opacity:1"
     d="m 18.497284,30.910969 c -0.09669,-0.02718 -0.256736,-0.09183 -0.355668,-0.143656 -0.09893,-0.05183 -2.646268,-1.842057 -5.660746,-3.978283 L 7,22.904983 V 16.000537 9.0960915 l 5.369753,-3.8076611 c 2.953365,-2.0942136 5.475961,-3.8733381 5.60577,-3.9536098 0.372897,-0.2305939 0.68816,-0.3098738 1.144802,-0.287885 0.353643,0.017029 0.405815,0.030365 0.711643,0.1819087 0.53884,0.2670057 0.895166,0.6935031 1.078082,1.2903865 0.06807,0.2221147 0.07072,0.7269577 0.07072,13.4615382 0,12.523499 -0.0036,13.243901 -0.06786,13.476427 -0.16507,0.597539 -0.532066,1.041982 -1.087802,1.31736 -0.32653,0.161802 -0.349412,0.167224 -0.744457,0.176383 -0.244661,0.0057 -0.477837,-0.0103 -0.583364,-0.03997 z"
     id="path904" />
  <path
     style="fill:#ffffff;fill-opacity:1;stroke:#000000;stroke-width:0.0675954"
     d="m 2.7692308,21.959447 c -0.782954,-0.09535 -1.4238502,-0.634365 -1.66479,-1.400157 l -0.08521,-0.270828 V 16 11.711538 l 0.08521,-0.270827 c 0.1993776,-0.633693 0.6885957,-1.127949 1.3186361,-1.332216 0.2253059,-0.07305 0.3649226,-0.08285 1.4134616,-0.09922 L 5,9.9911155 V 15.995558 22 L 4.0096154,21.9949 C 3.4649038,21.9921 2.9067308,21.97615 2.7692308,21.9594 Z"
     id="path1313" />
  <path
     style="fill:#ffffff;fill-opacity:1;stroke:#000000;stroke-width:0.0675954"
     d="M 23.83265,22.955127 C 23.619581,22.924533 23.434424,22.816883 23.267109,22.626323 23.096971,22.432546 23.038462,22.272275 23.038462,22 c 0,-0.280431 0.06125,-0.439859 0.248707,-0.647351 0.226839,-0.251083 0.388031,-0.30745 1.00537,-0.351566 0.825451,-0.05899 1.539646,-0.266658 2.186726,-0.635844 1.288238,-0.734995 2.208274,-2.041539 2.461286,-3.495277 0.07713,-0.443184 0.07713,-1.29674 0,-1.739924 C 28.686567,13.670711 27.772457,12.372582 26.479265,11.634761 25.832185,11.265575 25.11799,11.057905 24.292539,10.998917 23.6752,10.954801 23.514008,10.898434 23.287169,10.647351 23.099712,10.439859 23.038462,10.280431 23.038462,10 c 0,-0.2804313 0.06125,-0.4398589 0.248707,-0.6473513 0.235873,-0.2610826 0.408765,-0.3210349 0.914143,-0.3169886 1.710496,0.013695 3.448427,0.7639796 4.723738,2.0392899 0.981359,0.98136 1.636488,2.203596 1.928628,3.598127 0.07802,0.37241 0.08863,0.53132 0.08863,1.326923 0,0.795603 -0.01062,0.954513 -0.08863,1.326923 -0.29214,1.394531 -0.947269,2.616767 -1.928628,3.598127 -0.984023,0.984022 -2.239026,1.655265 -3.595233,1.922924 -0.467972,0.09236 -1.223573,0.146437 -1.497167,0.107153 z"
     id="path1352" />
  <path
     style="fill:#ffffff;fill-opacity:1;stroke:#000000;stroke-width:0.0675954"
     d="M 23.836647,18.955817 C 23.619725,18.924533 23.435221,18.817791 23.267109,18.626323 23.096971,18.432546 23.038462,18.272275 23.038462,18 c 0,-0.272275 0.05851,-0.432546 0.228647,-0.626323 0.192791,-0.219577 0.352523,-0.297293 0.726537,-0.353492 0.51915,-0.07801 0.762283,-0.23473 0.926319,-0.597108 0.105986,-0.234139 0.105986,-0.612015 0,-0.846154 -0.164036,-0.362378 -0.407169,-0.519102 -0.926319,-0.597108 -0.202273,-0.03039 -0.394497,-0.08427 -0.47236,-0.132391 -0.16661,-0.10297 -0.361653,-0.324179 -0.429944,-0.487622 -0.06846,-0.163846 -0.06787,-0.557157 0.0011,-0.722174 0.07891,-0.188852 0.310848,-0.428868 0.505498,-0.523096 0.356182,-0.172425 1.121998,-0.07075 1.729008,0.229548 1.462363,0.723463 2.058153,2.508972 1.328997,3.982843 -0.361051,0.729806 -1.014972,1.282355 -1.79711,1.51852 -0.328494,0.09919 -0.769518,0.14681 -1.022163,0.110374 z"
     id="path1391" />
</svg>
