<?xml version="1.0" encoding="UTF-8" standalone="no"?>
<svg
   width="32"
   height="32"
   enable-background="new 0 0 32 32"
   viewBox="0 0 32 32"
   id="audio"
   version="1.1"
   sodipodi:docname="audio_muted.svg"
   inkscape:version="1.1.1 (3bf5ae0d25, 2021-09-20)"
   xmlns:inkscape="http://www.inkscape.org/namespaces/inkscape"
   xmlns:sodipodi="http://sodipodi.sourceforge.net/DTD/sodipodi-0.dtd"
   xmlns="http://www.w3.org/2000/svg"
   xmlns:svg="http://www.w3.org/2000/svg">
  <defs
     id="defs11" />
  <sodipodi:namedview
     id="namedview9"
     pagecolor="#ffffff"
     bordercolor="#666666"
     borderopacity="1.0"
     inkscape:pageshadow="2"
     inkscape:pageopacity="0.0"
     inkscape:pagecheckerboard="0"
     showgrid="false"
     inkscape:zoom="16"
     inkscape:cx="43.34375"
     inkscape:cy="20.96875"
     inkscape:window-width="1920"
     inkscape:window-height="1017"
     inkscape:window-x="-8"
     inkscape:window-y="-8"
     inkscape:window-maximized="1"
     inkscape:current-layer="audio" />
  <rect
     width="32"
     height="32"
     fill="none"
     id="rect2" />
  <path
     d="M 5,10 H 3 c -1.103,0 -2,0.897 -2,2 v 8 c 0,1.103 0.897,2 2,2 H 5 Z M 19.911,1.228 C 19.269,0.89 18.497,0.934 17.882,1.355 L 7,9.066 v 13.869 l 10.881,7.711 0.014,0.01 c 0.333,0.228 0.719,0.343 1.105,0.343 0.312,0 0.624,-0.075 0.91,-0.226 C 20.583,30.417 21,29.714 21,28.935 V 3.065 C 21,2.286 20.583,1.583 19.911,1.228 Z"
     id="path6"
     sodipodi:nodetypes="cssssccccccccscssc" />
  <path
     style="fill:#ffffff;stroke:#000000;stroke-width:0.0675954;fill-opacity:1"
     d="M 2.7884615,21.962796 C 1.9966234,21.871253 1.3478272,21.330001 1.1041707,20.557692 l -0.08494,-0.26923 V 16 11.711538 l 0.08521,-0.270827 c 0.1993776,-0.633693 0.6885957,-1.127949 1.3186361,-1.332216 0.2253059,-0.07305 0.3649226,-0.08285 1.4134616,-0.09922 L 5,9.9911155 V 15.995558 22 L 4.0096154,21.9947 C 3.4649038,21.9918 2.9153846,21.97743 2.7884615,21.96276 Z"
     id="path859" />
  <path
     style="fill:#ffffff;fill-opacity:1;stroke:#000000;stroke-width:0.0675954"
     d="m 18.497284,30.910969 c -0.09669,-0.02718 -0.256736,-0.09183 -0.355668,-0.143656 -0.09893,-0.05183 -2.646268,-1.842057 -5.660746,-3.978283 L 7,22.904983 V 16.000537 9.0960915 l 5.369753,-3.8076611 c 2.953365,-2.0942136 5.475961,-3.8733381 5.60577,-3.9536098 0.372897,-0.2305939 0.68816,-0.3098738 1.144802,-0.287885 0.353643,0.017029 0.405815,0.030365 0.711643,0.1819087 0.53884,0.2670057 0.895166,0.6935031 1.078082,1.2903865 0.06807,0.2221147 0.07072,0.7269577 0.07072,13.4615382 0,12.523499 -0.0036,13.243901 -0.06786,13.476427 -0.16507,0.597539 -0.532066,1.041982 -1.087802,1.31736 -0.32653,0.161802 -0.349412,0.167224 -0.744457,0.176383 -0.244661,0.0057 -0.477837,-0.0103 -0.583364,-0.03997 z"
     id="path1194" />
  <text
     xml:space="preserve"
     style="font-style:normal;font-weight:normal;font-size:13.3333px;line-height:1.25;font-family:sans-serif;fill:#ff0000;fill-opacity:1;stroke:none"
     x="21.516596"
     y="20.744711"
     id="text1772"><tspan
       sodipodi:role="line"
       id="tspan1770"
       x="21.516596"
       y="20.744711"
       style="font-weight:bold;font-size:13.3333px;fill:#ff0000;fill-opacity:1">X</tspan></text>
</svg>
