# Blender v2.90.1 OBJ File: ''
# www.blender.org
mtllib Bezels.mtl
o Bezels_Scene.015
v 0.338061 -0.246276 -1.223405
v 0.344016 -0.257706 -1.234835
v 0.171405 -0.246276 -1.223405
v 0.159975 -0.257706 -1.234835
v 0.171405 -0.177696 -1.154825
v 0.159975 -0.166266 -1.143395
v 0.338276 -0.177696 -1.154825
v 0.343170 -0.166266 -1.143395
v 0.347920 -0.232176 -1.209306
v 0.350038 -0.178571 -1.155700
v 0.360000 -0.234846 -1.211975
v -0.338061 -0.246276 -1.223405
v -0.159975 -0.257706 -1.234835
v -0.344016 -0.257706 -1.234835
v -0.171405 -0.246276 -1.223405
v -0.171405 -0.177696 -1.154825
v -0.159975 -0.166266 -1.143395
v -0.338276 -0.177696 -1.154825
v -0.343170 -0.166266 -1.143395
v -0.350039 -0.178571 -1.155700
v -0.360000 -0.234846 -1.211975
v -0.347920 -0.232176 -1.209306
vt 0.161923 0.095883
vt 0.155968 0.080438
vt 0.328579 0.095881
vt 0.340009 0.080436
vt 0.328581 0.188551
vt 0.340011 0.203996
vt 0.161710 0.188553
vt 0.156816 0.203998
vt 0.152065 0.114935
vt 0.149948 0.187370
vt 0.139985 0.111328
vt 0.838045 0.095877
vt 0.659959 0.080433
vt 0.844000 0.080432
vt 0.671389 0.095878
vt 0.671391 0.188548
vt 0.659961 0.203993
vt 0.838262 0.188547
vt 0.843156 0.203992
vt 0.850025 0.187364
vt 0.859985 0.111322
vt 0.847905 0.114929
vn 0.0000 0.7071 -0.7071
vn 0.0001 0.7071 -0.7071
vn -0.0001 0.7071 -0.7071
usemtl GunMetal.006
s 1
f 1/1/1 2/2/1 3/3/1
f 3/3/1 2/2/1 4/4/1
f 5/5/1 4/4/1 6/6/1
f 3/3/1 4/4/1 5/5/1
f 7/7/1 6/6/1 8/8/1
f 5/5/1 6/6/1 7/7/1
f 9/9/2 8/8/1 10/10/1
f 9/9/2 10/10/1 11/11/1
f 7/7/1 8/8/1 9/9/2
f 9/9/2 11/11/1 1/1/1
f 1/1/1 11/11/1 2/2/1
f 12/12/1 13/13/1 14/14/1
f 15/15/1 13/13/1 12/12/1
f 16/16/1 17/17/1 15/15/1
f 15/15/1 17/17/1 13/13/1
f 18/18/1 19/19/1 16/16/1
f 16/16/1 19/19/1 17/17/1
f 18/18/1 20/20/1 19/19/1
f 18/18/1 21/21/3 20/20/1
f 22/22/3 21/21/3 18/18/1
f 22/22/3 14/14/1 21/21/3
f 12/12/1 14/14/1 22/22/3
