# Blender v2.90.1 OBJ File: ''
# www.blender.org
mtllib Hover Pads.mtl
o HoverPads_Scene.018
v 0.320040 -0.291996 0.305929
v -0.320040 -0.291996 0.305929
v -0.320040 -0.291996 -0.091835
v 0.320040 -0.291996 -0.091835
v 0.320040 -0.291996 -0.549035
v 0.131400 -0.291996 -0.549035
v 0.131400 -0.291996 -1.175443
v 0.320040 -0.291996 -1.175443
v -0.131400 -0.291996 -0.549035
v -0.320040 -0.291996 -0.549035
v -0.320040 -0.291996 -1.175443
v -0.131400 -0.291996 -1.175443
vt 0.179974 0.769681
vt 0.820054 0.769676
vt 0.820046 0.583913
vt 0.179967 0.583918
vt 0.179958 0.370398
vt 0.368598 0.370396
vt 0.368585 0.077852
vt 0.179945 0.077854
vt 0.631398 0.370394
vt 0.820038 0.370392
vt 0.820025 0.077848
vt 0.631385 0.077850
vn 0.0000 -1.0000 0.0000
usemtl Hover.004
s 1
f 1/1/1 2/2/1 3/3/1 4/4/1
f 5/5/1 6/6/1 7/7/1 8/8/1
f 9/9/1 10/10/1 11/11/1 12/12/1
