# Blender v2.90.1 OBJ File: ''
# www.blender.org
mtllib Lens.mtl
o Lense_Scene.016
v -0.338276 -0.177696 -1.120535
v -0.171405 -0.177696 -1.120535
v -0.347920 -0.232176 -1.120535
v -0.171405 -0.246276 -1.120535
v -0.338061 -0.246276 -1.120535
v 0.171405 -0.177696 -1.120535
v 0.338276 -0.177696 -1.120535
v 0.171405 -0.246276 -1.120535
v 0.347920 -0.232176 -1.120535
v 0.338061 -0.246276 -1.120535
vt 0.838262 0.204561
vt 0.671391 0.204562
vt 0.847906 0.156387
vt 0.671391 0.143920
vt 0.838047 0.143919
vt 0.328581 0.204565
vt 0.161710 0.204567
vt 0.328581 0.143924
vt 0.152066 0.156393
vt 0.161925 0.143925
vn 0.0000 -0.0000 -1.0000
usemtl Standard_Material.002
s 1
f 1/1/1 2/2/1 3/3/1
f 3/3/1 2/2/1 4/4/1
f 3/3/1 4/4/1 5/5/1
f 6/6/1 7/7/1 8/8/1
f 8/8/1 7/7/1 9/9/1
f 8/8/1 9/9/1 10/10/1
