# Blender v2.90.1 OBJ File: ''
# www.blender.org
mtllib Stripe.mtl
o Stripe_Scene.011
v -0.360000 -0.234846 0.363079
v -0.350039 -0.178571 -1.155700
v -0.360000 -0.234846 -1.211975
v -0.350038 -0.178571 0.336837
v -0.350038 -0.178571 -0.320435
v 0.360000 -0.234846 0.363079
v 0.350038 -0.178571 0.336837
v 0.360000 -0.234846 -1.211975
v 0.350038 -0.178571 -1.155700
vt 1.662527 0.471862
vt 0.143748 0.528138
vt 0.087473 0.471862
vt 1.636285 0.528138
vt 0.979013 0.528138
vt 0.807473 0.471862
vt 0.097435 0.528138
vt 0.087473 0.471862
vt 0.797511 0.528138
vt 0.113715 0.528138
vt 1.662527 0.471862
vt 1.606252 0.528138
vt 0.087473 0.471862
vn -0.9847 0.1743 0.0000
vn 0.0000 0.4226 0.9063
vn 0.9847 0.1743 -0.0000
usemtl GunMetal.007
s 1
f 1/1/1 2/2/1 3/3/1
f 1/1/1 4/4/1 5/5/1
f 1/1/1 5/5/1 2/2/1
f 6/6/2 4/7/2 1/8/2
f 4/7/2 6/6/2 7/9/2
f 7/10/3 8/11/3 9/12/3
f 8/11/3 7/10/3 6/13/3
