# Blender v2.90.1 OBJ File: ''
# www.blender.org
mtllib Proximity Mine Hex.mtl
o Proximity_Mine_Hex
v 0.000925 0.050000 -0.001705
v -0.000925 0.050000 -0.001705
v 0.001850 0.050000 -0.000103
v -0.001850 0.050000 -0.000103
v 0.000925 0.050000 0.001500
v -0.000925 0.050000 0.001500
v -0.050000 0.000000 -0.086705
v -0.050000 0.015658 -0.086705
v 0.050000 0.000000 -0.086705
v 0.050000 0.015658 -0.086705
v 0.100000 0.000000 -0.000103
v 0.100000 0.015658 -0.000103
v 0.050000 0.000000 0.086500
v 0.050000 0.015658 0.086500
v -0.050000 0.000000 0.086500
v -0.050000 0.015658 0.086500
v -0.100000 0.000000 -0.000103
v -0.100000 0.015658 -0.000103
vn 0.0000 1.0000 0.0000
vn 0.0000 0.0000 -1.0000
vn 0.8660 0.0000 -0.5000
vn 0.8660 0.0000 0.5000
vn 0.0000 0.0000 1.0000
vn -0.8660 0.0000 0.5000
vn -0.8660 0.0000 -0.5000
vn 0.0000 -1.0000 -0.0000
vn 0.3244 0.9272 -0.1873
vn 0.3244 0.9272 0.1873
vn 0.3245 0.9272 0.1873
vn 0.3245 0.9272 0.1872
vn 0.0000 0.9272 0.3746
vn -0.3244 0.9272 0.1873
vn -0.3244 0.9272 0.1872
vn -0.3244 0.9272 -0.1873
vn 0.0000 0.9272 -0.3746
usemtl None
s 1
f 1//1 2//1 3//1
f 3//1 2//1 4//1
f 3//1 4//1 5//1
f 5//1 4//1 6//1
f 7//2 8//2 9//2
f 9//2 8//2 10//2
f 9//3 10//3 11//3
f 11//3 10//3 12//3
f 11//4 12//4 13//4
f 13//4 12//4 14//4
f 13//5 14//5 15//5
f 15//5 14//5 16//5
f 15//6 16//6 17//6
f 17//6 16//6 18//6
f 17//7 18//7 7//7
f 7//7 18//7 8//7
f 7//8 9//8 17//8
f 17//8 9//8 11//8
f 17//8 11//8 15//8
f 15//8 11//8 13//8
f 10//9 1//9 12//9
f 12//9 1//9 3//9
f 12//10 3//11 14//10
f 14//10 3//11 5//12
f 14//13 5//13 16//13
f 16//13 5//13 6//13
f 16//14 6//14 18//14
f 18//14 6//14 4//15
f 18//16 4//16 8//16
f 8//16 4//16 2//16
f 8//17 2//17 10//17
f 10//17 2//17 1//17
