# Blender 4.2.2 LTS
# www.blender.org
mtllib ramp1x1x1.mtl
o ramp111
v 0.500000 1.000000 0.500000
v 0.500000 0.000000 0.500000
v 0.500000 0.000000 -0.500000
v -0.500000 0.000000 -0.500000
v -0.500000 0.000000 0.500000
v -0.500000 1.000000 0.500000
vn 1.0000 -0.0000 -0.0000
vn -1.0000 -0.0000 -0.0000
vn -0.0000 0.7071 -0.7071
vn -0.0000 -1.0000 -0.0000
vn -0.0000 -0.0000 1.0000
vt 0.000208 1.000304
vt 0.000208 0.000304
vt 1.000208 0.000304
vt 1.000651 0.000651
vt 0.000651 0.000651
vt 0.000651 1.000651
vt 1.000000 1.001794
vt 0.000000 1.001794
vt 1.000000 0.001794
vt 0.000000 0.001794
vt 0.000799 0.000416
vt 0.000799 1.000416
vt 1.000799 0.000416
vt 1.000799 1.000416
vt 0.000899 1.000387
vt 0.000899 0.000387
vt 1.000899 1.000387
vt 1.000899 0.000387
s 1
f 1/1/1 2/2/1 3/3/1
f 4/4/2 5/5/2 6/6/2
f 3/7/3 4/8/3 1/9/3
f 1/9/3 4/8/3 6/10/3
f 5/11/4 4/12/4 2/13/4
f 2/13/4 4/12/4 3/14/4
f 6/15/5 5/16/5 1/17/5
f 1/17/5 5/16/5 2/18/5
